<svg width="30" height="31" viewBox="0 0 30 31" fill="none" xmlns="http://www.w3.org/2000/svg">
<g clip-path="url(#clip0_51_174)">
<path d="M27.5 15.5C27.5 8.59644 21.9036 3 15 3C8.09644 3 2.5 8.59644 2.5 15.5C2.5 22.4036 8.09644 28 15 28" stroke="#8E8E8E" stroke-width="1.5" stroke-linejoin="round"/>
<path d="M9.375 21.75C12.2896 18.6973 17.679 18.5535 20.625 21.75M18.1189 12.375C18.1189 14.1009 16.7177 15.5 14.9894 15.5C13.2611 15.5 11.86 14.1009 11.86 12.375C11.86 10.6491 13.2611 9.25 14.9894 9.25C16.7177 9.25 18.1189 10.6491 18.1189 12.375Z" stroke="#8E8E8E" stroke-width="1.5" stroke-linejoin="round"/>
<path d="M27.4815 22.4616C28.1136 21.3595 28.4187 20.4596 28.6027 19.5475C28.8749 18.1984 28.2521 16.8805 27.2204 16.0396C26.7843 15.6842 26.2845 15.8057 26.0266 16.2682L25.4445 17.3126C24.9831 18.1404 24.7524 18.5542 24.7982 18.993C24.8439 19.4318 25.155 19.7892 25.7773 20.504L27.4815 22.4616ZM27.4815 22.4616C26.2023 24.6922 24.1947 26.7008 21.9616 27.9816M21.9616 27.9816C20.8595 28.6136 19.9596 28.9188 19.0474 29.1028C17.6984 29.3749 16.3805 28.7521 15.5396 27.7204C15.1842 27.2844 15.3056 26.7845 15.7682 26.5266L16.8126 25.9445C17.6404 25.4831 18.0542 25.2524 18.493 25.2982C18.9318 25.3439 19.2892 25.655 20.004 26.2773L21.9616 27.9816Z" stroke="#8E8E8E" stroke-width="1.5" stroke-linejoin="round"/>
</g>
<defs>
<clipPath id="clip0_51_174">
<rect width="30" height="30" fill="white" transform="translate(0 0.5)"/>
</clipPath>
</defs>
</svg>
