<svg width="160" height="38" viewBox="0 0 160 38" fill="none" xmlns="http://www.w3.org/2000/svg">
<path d="M16.5512 13.441C16.5512 14.1417 16.3089 14.7317 15.8243 15.2111C15.3397 15.6904 14.7432 15.9301 14.0349 15.9301H7.38093C6.89632 15.9301 6.65402 16.1883 6.65402 16.7045V35.4556C6.65402 36.1562 6.39307 36.7647 5.87119 37.2809C5.38658 37.7603 4.79015 38 4.08188 38H2.51622C1.80795 38 1.21152 37.7603 0.726909 37.2809C0.242303 36.7647 0 36.1562 0 35.4556V15.5429C0 14.3998 0.279581 13.3673 0.838742 12.4454C1.3979 11.4867 2.14345 10.7307 3.07539 10.1776C4.00732 9.62445 5.05109 9.34789 6.20669 9.34789H14.0349C14.7432 9.34789 15.3397 9.60602 15.8243 10.1223C16.3089 10.6016 16.5512 11.2101 16.5512 11.9476V13.441Z" fill="black"/>
<path d="M29.5198 4.14847C29.5198 5.29161 29.0911 6.28724 28.2337 7.13537C27.4136 7.94663 26.4444 8.35226 25.3261 8.35226C24.1705 8.35226 23.164 7.94663 22.3066 7.13537C21.4865 6.28724 21.0764 5.29161 21.0764 4.14847C21.0764 3.04221 21.4865 2.08346 22.3066 1.2722C23.164 0.424066 24.1705 0 25.3261 0C26.4444 0 27.4136 0.424066 28.2337 1.2722C29.0911 2.08346 29.5198 3.04221 29.5198 4.14847ZM28.6251 35.4556C28.6251 36.1562 28.3642 36.7647 27.8423 37.2809C27.3577 37.7603 26.7612 38 26.053 38H24.5432C23.835 38 23.2199 37.7603 22.698 37.2809C22.2134 36.7647 21.9711 36.1562 21.9711 35.4556V12.5007C21.9711 11.8001 22.2134 11.2101 22.698 10.7307C23.2199 10.2145 23.835 9.95633 24.5432 9.95633H26.053C26.7612 9.95633 27.3577 10.2145 27.8423 10.7307C28.3642 11.2101 28.6251 11.8001 28.6251 12.5007V35.4556Z" fill="black"/>
<path d="M61.2491 35.4556C61.2491 36.1562 60.9882 36.7647 60.4663 37.2809C59.9817 37.7603 59.3852 38 58.677 38H57.1113C56.403 38 55.788 37.7603 55.2661 37.2809C54.7815 36.7647 54.5392 36.1562 54.5392 35.4556V16.7045C54.5392 16.1883 54.2969 15.9301 53.8123 15.9301H51.6315C51.1842 15.9301 50.9605 16.1883 50.9605 16.7045V35.4556C50.9605 36.1562 50.6996 36.7647 50.1777 37.2809C49.6931 37.7603 49.0967 38 48.3884 38H46.8787C46.1704 38 45.5553 37.7603 45.0334 37.2809C44.5488 36.7647 44.3065 36.1562 44.3065 35.4556V16.7045C44.3065 16.1883 44.0829 15.9301 43.6355 15.9301H41.4548C40.9702 15.9301 40.7279 16.1883 40.7279 16.7045V35.4556C40.7279 36.1562 40.4669 36.7647 39.9451 37.2809C39.4605 37.7603 38.864 38 38.1558 38H36.5901C35.8818 38 35.2668 37.7603 34.7449 37.2809C34.2603 36.7647 34.018 36.1562 34.018 35.4556V15.5429C34.018 14.3998 34.2975 13.3673 34.8567 12.4454C35.4531 11.4867 36.2173 10.7307 37.1493 10.1776C38.0812 9.62445 39.125 9.34789 40.2806 9.34789H44.6979C45.518 9.34789 46.2636 9.51383 46.9346 9.84571C47.3819 9.95633 47.8479 9.95633 48.3325 9.84571C49.0035 9.51383 49.749 9.34789 50.5691 9.34789H54.9865C56.1421 9.34789 57.1859 9.62445 58.1178 10.1776C59.0497 10.7307 59.7953 11.4867 60.3544 12.4454C60.9509 13.3673 61.2491 14.3998 61.2491 15.5429V35.4556Z" fill="black"/>
<path d="M92.9749 35.4556C92.9749 36.1562 92.714 36.7647 92.1921 37.2809C91.7075 37.7603 91.1111 38 90.4028 38H88.8372C88.1289 38 87.5138 37.7603 86.9919 37.2809C86.5073 36.7647 86.265 36.1562 86.265 35.4556V16.7045C86.265 16.1883 86.0227 15.9301 85.5381 15.9301H83.3574C82.91 15.9301 82.6864 16.1883 82.6864 16.7045V35.4556C82.6864 36.1562 82.4254 36.7647 81.9035 37.2809C81.4189 37.7603 80.8225 38 80.1142 38H78.6045C77.8962 38 77.2812 37.7603 76.7593 37.2809C76.2747 36.7647 76.0324 36.1562 76.0324 35.4556V16.7045C76.0324 16.1883 75.8087 15.9301 75.3614 15.9301H73.1806C72.696 15.9301 72.4537 16.1883 72.4537 16.7045V35.4556C72.4537 36.1562 72.1928 36.7647 71.6709 37.2809C71.1863 37.7603 70.5899 38 69.8816 38H68.3159C67.6077 38 66.9926 37.7603 66.4707 37.2809C65.9861 36.7647 65.7438 36.1562 65.7438 35.4556V15.5429C65.7438 14.3998 66.0234 13.3673 66.5825 12.4454C67.179 11.4867 67.9432 10.7307 68.8751 10.1776C69.807 9.62445 70.8508 9.34789 72.0064 9.34789H76.4238C77.2439 9.34789 77.9894 9.51383 78.6604 9.84571C79.1077 9.95633 79.5737 9.95633 80.0583 9.84571C80.7293 9.51383 81.4749 9.34789 82.295 9.34789H86.7123C87.8679 9.34789 88.9117 9.62445 89.8436 10.1776C90.7756 10.7307 91.5211 11.4867 92.0803 12.4454C92.6767 13.3673 92.9749 14.3998 92.9749 15.5429V35.4556Z" fill="black"/>
<path d="M117.711 31.8049C117.711 33.5381 117.096 35.0131 115.866 36.23C114.673 37.41 113.219 38 111.505 38H103.732C102.017 38 100.545 37.41 99.3149 36.23C98.0847 35.0131 97.4696 33.5381 97.4696 31.8049V25.7758C97.4696 24.6327 97.7492 23.6186 98.3084 22.7336C98.9048 21.8117 99.669 21.0742 100.601 20.5211C101.533 19.968 102.577 19.6914 103.732 19.6914H110.33C110.517 19.6914 110.684 19.6177 110.834 19.4702C111.02 19.3227 111.113 19.1383 111.113 18.917V16.7045C111.113 16.4833 111.02 16.2989 110.834 16.1514C110.684 16.0039 110.517 15.9301 110.33 15.9301H103.732C103.024 15.9301 102.409 15.6904 101.887 15.2111C101.402 14.7317 101.16 14.1417 101.16 13.441V11.9476C101.16 11.2101 101.402 10.6016 101.887 10.1223C102.409 9.60602 103.024 9.34789 103.732 9.34789H111.505C112.66 9.34789 113.704 9.62445 114.636 10.1776C115.568 10.7307 116.313 11.4867 116.873 12.4454C117.432 13.3673 117.711 14.3998 117.711 15.5429V31.8049ZM111.113 30.754V26.9374C111.113 26.753 111.02 26.5871 110.834 26.4396C110.684 26.2921 110.517 26.2183 110.33 26.2183H104.906C104.72 26.2183 104.534 26.2921 104.347 26.4396C104.198 26.5871 104.124 26.753 104.124 26.9374V30.754C104.124 30.9384 104.198 31.1043 104.347 31.2518C104.534 31.3993 104.72 31.4731 104.906 31.4731H110.33C110.517 31.4731 110.684 31.3993 110.834 31.2518C111.02 31.1043 111.113 30.9384 111.113 30.754Z" fill="black"/>
<path d="M138.868 13.441C138.868 14.1417 138.625 14.7317 138.141 15.2111C137.656 15.6904 137.06 15.9301 136.351 15.9301H129.697C129.213 15.9301 128.97 16.1883 128.97 16.7045V35.4556C128.97 36.1562 128.71 36.7647 128.188 37.2809C127.703 37.7603 127.107 38 126.398 38H124.833C124.124 38 123.528 37.7603 123.043 37.2809C122.559 36.7647 122.316 36.1562 122.316 35.4556V15.5429C122.316 14.3998 122.596 13.3673 123.155 12.4454C123.714 11.4867 124.46 10.7307 125.392 10.1776C126.324 9.62445 127.368 9.34789 128.523 9.34789H136.351C137.06 9.34789 137.656 9.60602 138.141 10.1223C138.625 10.6016 138.868 11.2101 138.868 11.9476V13.441Z" fill="black"/>
<path d="M160 35.4556C160 36.1562 159.758 36.7647 159.273 37.2809C158.788 37.7603 158.192 38 157.484 38H149.656C147.941 38 146.468 37.41 145.238 36.23C144.045 35.0131 143.449 33.5381 143.449 31.8049V3.15284C143.449 2.41533 143.691 1.80689 144.176 1.32751C144.66 0.848131 145.257 0.608441 145.965 0.608441H147.531C148.239 0.608441 148.835 0.848131 149.32 1.32751C149.842 1.80689 150.103 2.41533 150.103 3.15284V8.68413C150.103 9.12664 150.345 9.34789 150.83 9.34789H157.484C158.192 9.34789 158.788 9.60602 159.273 10.1223C159.758 10.6016 160 11.2101 160 11.9476V13.441C160 14.0679 159.758 14.6579 159.273 15.2111C158.714 15.6904 158.117 15.9301 157.484 15.9301H150.83C150.345 15.9301 150.103 16.1883 150.103 16.7045V30.754C150.103 31.2334 150.345 31.4731 150.83 31.4731H157.484C158.192 31.4731 158.788 31.7128 159.273 32.1921C159.758 32.6715 160 33.28 160 34.0175V35.4556Z" fill="black"/>
</svg>
