<svg width="1198" height="126" viewBox="0 0 1198 126" fill="none" xmlns="http://www.w3.org/2000/svg">
<path d="M60.545 1.55236H83.7022V92.1068H42.9507L23.1572 19.4045V92.1068H0V1.55236H40.7515L60.545 74.2546V1.55236Z" fill="white"/>
<path d="M102.333 92.1068V1.55236H173.746V20.5688H126.655V37.1273H163.137V54.9795H126.655V73.0903H175.557V92.1068H102.333Z" fill="white"/>
<path d="M286.133 1.55236H311.231L293.378 92.1068H257.413L246.934 20.5688L236.067 92.1068H199.844L182.767 1.55236H208.641L219.249 71.538L230.246 1.55236H264.27L274.878 71.4086L286.133 1.55236Z" fill="white"/>
<path d="M347.704 46.8296C347.704 32.4271 351.585 21.0431 359.348 12.6776C367.196 4.22587 377.977 0 391.69 0C403.333 0 412.691 2.846 419.763 8.53799C426.836 14.23 431.148 22.0349 432.7 31.9528L409.414 33.8932C408.465 29.5811 406.395 26.1745 403.204 23.6735C400.099 21.0862 396.261 19.7926 391.69 19.7926C387.205 19.7926 383.41 21.1294 380.306 23.8029C377.287 26.3901 375.131 29.6673 373.837 33.6345C372.63 37.5154 372.026 41.9138 372.026 46.8296C372.026 55.1088 373.923 61.7064 377.718 66.6222C381.513 71.4517 386.602 73.8665 392.984 73.8665C397.814 73.8665 401.738 72.4435 404.756 69.5975C407.861 66.7515 409.888 63.0862 410.837 58.6016L434.253 60.0246C432.787 70.8912 428.56 79.2135 421.574 84.9918C414.589 90.77 405.058 93.6591 392.984 93.6591C378.753 93.6591 367.627 89.4764 359.606 81.1109C351.672 72.7454 347.704 61.3183 347.704 46.8296Z" fill="white"/>
<path d="M454.739 81.3696C446.804 73.1766 442.837 61.6632 442.837 46.8296C442.837 31.9959 446.804 20.4825 454.739 12.2895C462.673 4.09651 473.972 0 488.633 0C503.295 0 514.594 4.09651 522.528 12.2895C530.463 20.4825 534.43 31.9959 534.43 46.8296C534.43 61.6632 530.463 73.1766 522.528 81.3696C514.594 89.5626 503.295 93.6591 488.633 93.6591C473.972 93.6591 462.673 89.5626 454.739 81.3696ZM472.85 27.1663C469.056 31.9959 467.158 38.5503 467.158 46.8296C467.158 55.1088 469.056 61.7064 472.85 66.6222C476.731 71.4517 481.993 73.8665 488.633 73.8665C495.361 73.8665 500.622 71.4517 504.417 66.6222C508.211 61.7064 510.109 55.1088 510.109 46.8296C510.109 38.5503 508.211 31.9959 504.417 27.1663C500.622 22.2505 495.361 19.7926 488.633 19.7926C481.993 19.7926 476.731 22.2505 472.85 27.1663Z" fill="white"/>
<path d="M548.684 92.1068V1.55236H573.006V72.1848H615.31V92.1068H548.684Z" fill="white"/>
<path d="M628.277 92.1068V1.55236H652.599V72.1848H694.902V92.1068H628.277Z" fill="white"/>
<path d="M707.87 92.1068V1.55236H779.282V20.5688H732.191V37.1273H768.673V54.9795H732.191V73.0903H781.093V92.1068H707.87Z" fill="white"/>
<path d="M787.233 46.8296C787.233 32.4271 791.114 21.0431 798.876 12.6776C806.725 4.22587 817.505 0 831.219 0C842.862 0 852.22 2.846 859.292 8.53799C866.364 14.23 870.676 22.0349 872.229 31.9528L848.942 33.8932C847.994 29.5811 845.924 26.1745 842.733 23.6735C839.628 21.0862 835.79 19.7926 831.219 19.7926C826.734 19.7926 822.939 21.1294 819.834 23.8029C816.815 26.3901 814.659 29.6673 813.366 33.6345C812.158 37.5154 811.555 41.9138 811.555 46.8296C811.555 55.1088 813.452 61.7064 817.247 66.6222C821.042 71.4517 826.13 73.8665 832.512 73.8665C837.342 73.8665 841.266 72.4435 844.285 69.5975C847.39 66.7515 849.417 63.0862 850.365 58.6016L873.781 60.0246C872.315 70.8912 868.089 79.2135 861.103 84.9918C854.117 90.77 844.587 93.6591 832.512 93.6591C818.282 93.6591 807.156 89.4764 799.135 81.1109C791.2 72.7454 787.233 61.3183 787.233 46.8296Z" fill="white"/>
<path d="M878.52 21.4743V1.55236H957.953V21.4743H930.398V92.1068H906.076V21.4743H878.52Z" fill="white"/>
<path d="M969.894 92.1068V1.55236H994.215V92.1068H969.894Z" fill="white"/>
<path d="M1020.35 81.3696C1012.42 73.1766 1008.45 61.6632 1008.45 46.8296C1008.45 31.9959 1012.42 20.4825 1020.35 12.2895C1028.29 4.09651 1039.59 0 1054.25 0C1068.91 0 1080.21 4.09651 1088.14 12.2895C1096.08 20.4825 1100.04 31.9959 1100.04 46.8296C1100.04 61.6632 1096.08 73.1766 1088.14 81.3696C1080.21 89.5626 1068.91 93.6591 1054.25 93.6591C1039.59 93.6591 1028.29 89.5626 1020.35 81.3696ZM1038.46 27.1663C1034.67 31.9959 1032.77 38.5503 1032.77 46.8296C1032.77 55.1088 1034.67 61.7064 1038.46 66.6222C1042.34 71.4517 1047.61 73.8665 1054.25 73.8665C1060.97 73.8665 1066.24 71.4517 1070.03 66.6222C1073.82 61.7064 1075.72 55.1088 1075.72 46.8296C1075.72 38.5503 1073.82 31.9959 1070.03 27.1663C1066.24 22.2505 1060.97 19.7926 1054.25 19.7926C1047.61 19.7926 1042.34 22.2505 1038.46 27.1663Z" fill="white"/>
<path d="M1174.84 1.55236H1198V92.1068H1157.25L1137.45 19.4045V92.1068H1114.3V1.55236H1155.05L1174.84 74.2546V1.55236Z" fill="white"/>
<path d="M60.545 33.8932H83.7022V124.448H42.9507L23.1572 51.7454V124.448H0V33.8932H40.7515L60.545 106.595V33.8932Z" fill="white" fill-opacity="0.18"/>
<path d="M102.333 124.448V33.8932H173.746V52.9096H126.655V69.4682H163.137V87.3203H126.655V105.431H175.557V124.448H102.333Z" fill="white" fill-opacity="0.18"/>
<path d="M286.133 33.8932H311.231L293.378 124.448H257.413L246.934 52.9096L236.067 124.448H199.844L182.767 33.8932H208.641L219.249 103.879L230.246 33.8932H264.27L274.878 103.749L286.133 33.8932Z" fill="white" fill-opacity="0.18"/>
<path d="M347.704 79.1704C347.704 64.768 351.585 53.384 359.348 45.0185C367.196 36.5667 377.977 32.3409 391.69 32.3409C403.333 32.3409 412.691 35.1869 419.763 40.8788C426.836 46.5708 431.148 54.3758 432.7 64.2936L409.414 66.2341C408.465 61.922 406.395 58.5154 403.204 56.0144C400.099 53.4271 396.261 52.1335 391.69 52.1335C387.205 52.1335 383.41 53.4702 380.306 56.1437C377.287 58.731 375.131 62.0082 373.837 65.9754C372.63 69.8563 372.026 74.2546 372.026 79.1704C372.026 87.4497 373.923 94.0472 377.718 98.963C381.513 103.793 386.602 106.207 392.984 106.207C397.814 106.207 401.738 104.784 404.756 101.938C407.861 99.0924 409.888 95.4271 410.837 90.9425L434.253 92.3655C432.787 103.232 428.56 111.554 421.574 117.333C414.589 123.111 405.058 126 392.984 126C378.753 126 367.627 121.817 359.606 113.452C351.672 105.086 347.704 93.6591 347.704 79.1704Z" fill="white" fill-opacity="0.18"/>
<path d="M454.739 113.71C446.804 105.517 442.837 94.0041 442.837 79.1704C442.837 64.3368 446.804 52.8234 454.739 44.6304C462.673 36.4374 473.972 32.3409 488.633 32.3409C503.295 32.3409 514.594 36.4374 522.528 44.6304C530.463 52.8234 534.43 64.3368 534.43 79.1704C534.43 94.0041 530.463 105.517 522.528 113.71C514.594 121.903 503.295 126 488.633 126C473.972 126 462.673 121.903 454.739 113.71ZM472.85 59.5072C469.056 64.3368 467.158 70.8912 467.158 79.1704C467.158 87.4497 469.056 94.0472 472.85 98.963C476.731 103.793 481.993 106.207 488.633 106.207C495.361 106.207 500.622 103.793 504.417 98.963C508.211 94.0472 510.109 87.4497 510.109 79.1704C510.109 70.8912 508.211 64.3368 504.417 59.5072C500.622 54.5914 495.361 52.1335 488.633 52.1335C481.993 52.1335 476.731 54.5914 472.85 59.5072Z" fill="white" fill-opacity="0.18"/>
<path d="M548.684 124.448V33.8932H573.006V104.526H615.31V124.448H548.684Z" fill="white" fill-opacity="0.18"/>
<path d="M628.277 124.448V33.8932H652.599V104.526H694.902V124.448H628.277Z" fill="white" fill-opacity="0.18"/>
<path d="M707.87 124.448V33.8932H779.282V52.9096H732.191V69.4682H768.673V87.3203H732.191V105.431H781.093V124.448H707.87Z" fill="white" fill-opacity="0.18"/>
<path d="M787.233 79.1704C787.233 64.768 791.114 53.384 798.876 45.0185C806.725 36.5667 817.505 32.3409 831.219 32.3409C842.862 32.3409 852.22 35.1869 859.292 40.8788C866.364 46.5708 870.676 54.3758 872.229 64.2936L848.942 66.2341C847.994 61.922 845.924 58.5154 842.733 56.0144C839.628 53.4271 835.79 52.1335 831.219 52.1335C826.734 52.1335 822.939 53.4702 819.834 56.1437C816.815 58.731 814.659 62.0082 813.366 65.9754C812.158 69.8563 811.555 74.2546 811.555 79.1704C811.555 87.4497 813.452 94.0472 817.247 98.963C821.042 103.793 826.13 106.207 832.512 106.207C837.342 106.207 841.266 104.784 844.285 101.938C847.39 99.0924 849.417 95.4271 850.365 90.9425L873.781 92.3655C872.315 103.232 868.089 111.554 861.103 117.333C854.117 123.111 844.587 126 832.512 126C818.282 126 807.156 121.817 799.135 113.452C791.2 105.086 787.233 93.6591 787.233 79.1704Z" fill="white" fill-opacity="0.18"/>
<path d="M878.52 53.8152V33.8932H957.953V53.8152H930.398V124.448H906.076V53.8152H878.52Z" fill="white" fill-opacity="0.18"/>
<path d="M969.894 124.448V33.8932H994.215V124.448H969.894Z" fill="white" fill-opacity="0.18"/>
<path d="M1020.35 113.71C1012.42 105.517 1008.45 94.0041 1008.45 79.1704C1008.45 64.3368 1012.42 52.8234 1020.35 44.6304C1028.29 36.4374 1039.59 32.3409 1054.25 32.3409C1068.91 32.3409 1080.21 36.4374 1088.14 44.6304C1096.08 52.8234 1100.04 64.3368 1100.04 79.1704C1100.04 94.0041 1096.08 105.517 1088.14 113.71C1080.21 121.903 1068.91 126 1054.25 126C1039.59 126 1028.29 121.903 1020.35 113.71ZM1038.46 59.5072C1034.67 64.3368 1032.77 70.8912 1032.77 79.1704C1032.77 87.4497 1034.67 94.0472 1038.46 98.963C1042.34 103.793 1047.61 106.207 1054.25 106.207C1060.97 106.207 1066.24 103.793 1070.03 98.963C1073.82 94.0472 1075.72 87.4497 1075.72 79.1704C1075.72 70.8912 1073.82 64.3368 1070.03 59.5072C1066.24 54.5914 1060.97 52.1335 1054.25 52.1335C1047.61 52.1335 1042.34 54.5914 1038.46 59.5072Z" fill="white" fill-opacity="0.18"/>
<path d="M1174.84 33.8932H1198V124.448H1157.25L1137.45 51.7454V124.448H1114.3V33.8932H1155.05L1174.84 106.595V33.8932Z" fill="white" fill-opacity="0.18"/>
</svg>
